<svg width="1024" height="1024" viewBox="0 0 1024 1024" fill="none" xmlns="http://www.w3.org/2000/svg">
<path d="M624.8 895C624 895 624 895 623.2 895C607.2 893.945 594.4 880.228 592 861.237L508 244.005L417.6 849.631C414.4 869.678 400.8 883.394 384.8 883.394C368 883.394 354.4 869.678 352 849.631L290.4 434.978L249.6 667.099H0V614.344H213.6L258.4 361.121C261.6 342.129 275.2 329.468 291.2 329.468C291.2 329.468 291.2 329.468 292 329.468C308 329.468 321.6 343.185 324.8 363.231L385.6 771.554L476 162.763C479.2 142.716 492.8 129 508.8 129C525.6 129 539.2 142.716 541.6 162.763L627.2 794.766L698.4 471.906C702.4 453.97 716 441.308 731.2 441.308C746.4 441.308 760 455.025 763.2 472.961L818.4 773.664L864 634.391H1024V687.146H894.4L847.2 831.694C841.6 848.576 828 859.127 813.6 857.016C799.2 855.961 786.4 843.3 783.2 825.364L729.6 534.157L656.8 864.402C652.8 882.339 640 895 624.8 895Z" fill="#232323" style="fill:#232323;fill:color(display-p3 0.1373 0.1373 0.1373);fill-opacity:1;"/>
</svg>
