<svg width="1024" height="1024" viewBox="0 0 1024 1024" fill="none" xmlns="http://www.w3.org/2000/svg">
<path d="M47.088 614.96C45.168 614.96 43.5253 614.64 42.16 614C40.7947 613.403 39.6427 612.592 38.704 611.568C37.7653 610.544 36.8907 609.413 36.08 608.176L27.12 594.224C26.6933 593.499 26.3093 593.051 25.968 592.88C25.6267 592.709 25.2213 592.603 24.752 592.56V590.32C27.312 590.149 29.296 589.637 30.704 588.784C32.112 587.931 33.0933 586.885 33.648 585.648C34.2027 584.368 34.48 583.045 34.48 581.68C34.48 579.077 33.7547 577.136 32.304 575.856C30.8533 574.533 29.1893 573.872 27.312 573.872C25.904 573.872 24.9013 574.128 24.304 574.64C23.7493 575.109 23.472 576.176 23.472 577.84V607.6C23.472 609.691 23.792 611.013 24.432 611.568C25.072 612.123 26.2453 612.443 27.952 612.528V614H9.712V612.528C10.9493 612.443 11.8453 612.123 12.4 611.568C12.9547 611.013 13.232 609.691 13.232 607.6V577.84C13.232 575.749 12.912 574.427 12.272 573.872C11.6747 573.275 10.5013 572.955 8.752 572.912V571.44H13.232C16.432 571.44 19.3333 571.397 21.936 571.312C24.5387 571.184 26.7573 571.12 28.592 571.12C32.816 571.12 36.1653 571.525 38.64 572.336C41.1573 573.104 42.9493 574.192 44.016 575.6C45.1253 577.008 45.68 578.608 45.68 580.4C45.68 582.107 45.2533 583.664 44.4 585.072C43.5893 586.48 42.5013 587.675 41.136 588.656C39.8133 589.595 38.3627 590.256 36.784 590.64V590.768L47.408 607.408C48.6453 609.371 49.776 610.715 50.8 611.44C51.824 612.165 52.7413 612.528 53.552 612.528V614C52.6987 614.299 51.6747 614.533 50.48 614.704C49.328 614.875 48.1973 614.96 47.088 614.96ZM82.561 607.6C83.201 609.051 83.713 610.117 84.097 610.8C84.5237 611.483 84.9077 611.931 85.249 612.144C85.5903 612.315 85.9957 612.443 86.465 612.528V614H70.273V612.528C71.6383 612.443 72.4277 611.952 72.641 611.056C72.8543 610.16 72.641 609.008 72.001 607.6L70.593 604.4C70.3797 604.613 70.0597 604.763 69.633 604.848C69.2063 604.891 68.7583 604.912 68.289 604.912H62.465C61.441 604.912 60.6943 605.061 60.225 605.36C59.7983 605.616 59.3717 606.256 58.945 607.28L58.817 607.6C58.177 609.051 58.1557 610.224 58.753 611.12C59.393 611.973 60.5023 612.443 62.081 612.528V614H51.841V612.528C52.4383 612.443 53.0143 611.973 53.569 611.12C54.1663 610.224 54.785 609.051 55.425 607.6L65.345 585.072C65.7717 584.133 66.1557 583.152 66.497 582.128C66.881 581.104 67.2223 580.037 67.521 578.928H70.785C71.3823 581.189 72.065 583.237 72.833 585.072L82.561 607.6ZM67.713 602.16C68.353 602.16 68.7797 602.053 68.993 601.84C69.2063 601.584 69.1423 601.093 68.801 600.368L65.409 592.88H65.281L61.121 602.416C61.3343 602.288 61.569 602.224 61.825 602.224C62.081 602.181 62.3797 602.16 62.721 602.16H67.713ZM106.746 580.4H117.946V581.872C117.135 581.957 116.388 582.469 115.706 583.408C115.023 584.304 114.255 585.435 113.402 586.8L106.746 597.808C106.319 598.491 105.999 599.109 105.786 599.664C105.615 600.219 105.53 601.051 105.53 602.16V607.6C105.53 609.691 105.807 611.013 106.362 611.568C106.959 612.123 107.962 612.443 109.37 612.528V614H92.7295V612.528C93.6682 612.443 94.3722 612.123 94.8415 611.568C95.3535 611.013 95.6095 609.691 95.6095 607.6V602.16C95.6095 601.051 95.5242 600.219 95.3535 599.664C95.2255 599.109 94.9482 598.491 94.5215 597.808L88.1215 586.8C87.3108 585.392 86.6495 584.347 86.1375 583.664C85.6255 582.981 85.1562 582.533 84.7295 582.32C84.3028 582.064 83.8122 581.915 83.2575 581.872V580.4H100.602V581.872C99.0228 581.957 98.2122 582.491 98.1695 583.472C98.1695 584.411 98.5322 585.52 99.2575 586.8L104.25 595.504H104.378L109.754 586.8C110.607 585.435 110.82 584.304 110.394 583.408C109.967 582.469 108.751 581.957 106.746 581.872V580.4ZM152.599 614.512C151.959 613.787 151.319 613.083 150.679 612.4C150.039 611.675 148.929 610.672 147.351 609.392L129.175 594.288H129.047V607.6C129.047 609.051 129.409 610.224 130.135 611.12C130.903 611.973 132.204 612.443 134.039 612.528V614H122.839V612.528C123.777 612.443 124.481 611.973 124.951 611.12C125.463 610.224 125.719 609.051 125.719 607.6V586.8C125.719 584.709 125.42 583.387 124.823 582.832C124.268 582.235 123.287 581.915 121.879 581.872V580.4H128.919C129.559 581.211 130.22 581.957 130.903 582.64C131.585 583.323 132.439 584.091 133.463 584.944L151.895 600.112H152.023V586.8C152.023 585.349 151.681 584.176 150.999 583.28C150.316 582.384 149.207 581.915 147.671 581.872V580.4H158.231V581.872C157.292 581.915 156.567 582.384 156.055 583.28C155.585 584.176 155.351 585.349 155.351 586.8V607.6C155.351 608.795 155.351 609.947 155.351 611.056C155.393 612.123 155.436 613.275 155.479 614.512H152.599ZM193.124 607.6C193.764 609.051 194.275 610.117 194.66 610.8C195.086 611.483 195.47 611.931 195.812 612.144C196.153 612.315 196.558 612.443 197.028 612.528V614H180.836V612.528C182.201 612.443 182.99 611.952 183.204 611.056C183.417 610.16 183.204 609.008 182.564 607.6L181.156 604.4C180.942 604.613 180.622 604.763 180.196 604.848C179.769 604.891 179.321 604.912 178.852 604.912H173.028C172.004 604.912 171.257 605.061 170.788 605.36C170.361 605.616 169.934 606.256 169.508 607.28L169.38 607.6C168.74 609.051 168.718 610.224 169.316 611.12C169.956 611.973 171.065 612.443 172.644 612.528V614H162.404V612.528C163.001 612.443 163.577 611.973 164.132 611.12C164.729 610.224 165.348 609.051 165.988 607.6L175.908 585.072C176.334 584.133 176.718 583.152 177.06 582.128C177.444 581.104 177.785 580.037 178.083 578.928H181.348C181.945 581.189 182.628 583.237 183.396 585.072L193.124 607.6ZM178.276 602.16C178.916 602.16 179.342 602.053 179.556 601.84C179.769 601.584 179.705 601.093 179.364 600.368L175.972 592.88H175.844L171.684 602.416C171.897 602.288 172.132 602.224 172.388 602.224C172.644 602.181 172.942 602.16 173.284 602.16H178.276Z" fill="black" style="fill:black;fill-opacity:1;"/>
</svg>
